<svg width="493" height="493" viewBox="0 0 493 493" fill="none" xmlns="http://www.w3.org/2000/svg">
<path d="M301.67 236.486L131.138 206.444V428.432C131.14 430.844 131.617 433.232 132.542 435.459C133.466 437.686 134.821 439.71 136.528 441.413C138.234 443.117 140.26 444.468 142.489 445.389C144.718 446.31 147.106 446.783 149.518 446.781H443.777C446.191 446.787 448.583 446.317 450.815 445.398C453.048 444.479 455.077 443.129 456.787 441.424C458.497 439.72 459.854 437.695 460.781 435.466C461.707 433.237 462.185 430.847 462.187 428.432V346.641L301.67 236.486Z" fill="#185C37"/>
<path d="M301.67 46.2188H149.518C147.106 46.2167 144.718 46.6897 142.489 47.6108C140.26 48.5318 138.234 49.8828 136.528 51.5866C134.821 53.2905 133.466 55.3138 132.542 57.5411C131.617 59.7684 131.14 62.156 131.138 64.5676V146.359L301.67 246.5L391.966 276.542L462.187 246.5V146.359L301.67 46.2188Z" fill="#21A366"/>
<path d="M131.138 146.359H301.67V246.5H131.138V146.359Z" fill="#107C41"/>
<path opacity="0.1" d="M253.186 126.331H131.138V376.683H253.186C258.049 376.659 262.707 374.719 266.151 371.285C269.594 367.85 271.545 363.197 271.581 358.334V144.68C271.545 139.817 269.594 135.164 266.151 131.73C262.707 128.295 258.049 126.355 253.186 126.331V126.331Z" fill="black"/>
<path opacity="0.2" d="M243.157 136.345H131.138V386.697H243.157C248.02 386.673 252.678 384.733 256.121 381.299C259.564 377.864 261.515 373.211 261.552 368.348V154.694C261.515 149.831 259.564 145.178 256.121 141.744C252.678 138.309 248.02 136.37 243.157 136.345V136.345Z" fill="black"/>
<path opacity="0.2" d="M243.157 136.345H131.138V366.669H243.157C248.02 366.645 252.678 364.705 256.121 361.271C259.564 357.836 261.515 353.183 261.552 348.32V154.694C261.515 149.831 259.564 145.178 256.121 141.744C252.678 138.309 248.02 136.37 243.157 136.345V136.345Z" fill="black"/>
<path opacity="0.2" d="M233.127 136.345H131.138V366.669H233.127C237.991 366.645 242.648 364.705 246.092 361.271C249.535 357.836 251.486 353.183 251.522 348.32V154.694C251.486 149.831 249.535 145.178 246.092 141.744C242.648 138.309 237.991 136.37 233.127 136.345V136.345Z" fill="black"/>
<path d="M49.2076 136.345H233.127C237.999 136.341 242.674 138.272 246.123 141.712C249.572 145.153 251.514 149.822 251.522 154.694V338.306C251.514 343.178 249.572 347.847 246.123 351.288C242.674 354.728 237.999 356.659 233.127 356.655H49.2076C46.7946 356.659 44.4046 356.187 42.174 355.267C39.9434 354.347 37.9159 352.996 36.2076 351.292C34.4993 349.588 33.1435 347.564 32.2178 345.336C31.292 343.108 30.8145 340.719 30.8125 338.306V154.694C30.8145 152.281 31.292 149.892 32.2178 147.664C33.1435 145.436 34.4993 143.412 36.2076 141.708C37.9159 140.004 39.9434 138.653 42.174 137.733C44.4046 136.813 46.7946 136.341 49.2076 136.345V136.345Z" fill="url(#paint0_linear_9_27)"/>
<path d="M87.8157 306.168L126.501 246.33L91.0664 186.832H119.522L138.857 224.931C140.644 228.536 141.938 231.217 142.523 233.004H142.785C144.048 230.108 145.389 227.319 146.791 224.592L167.466 186.893H193.657L157.313 246.053L194.581 306.215H166.711L144.372 264.448C143.335 262.653 142.453 260.771 141.738 258.825H141.368C140.716 260.721 139.848 262.536 138.78 264.233L115.778 306.168H87.8157Z" fill="white"/>
<path d="M443.792 46.2188H301.67V146.359H462.188V64.5676C462.186 62.1547 461.708 59.7658 460.782 57.5375C459.857 55.3092 458.501 53.2852 456.792 51.5812C455.084 49.8771 453.057 48.5265 450.826 47.6063C448.595 46.6862 446.205 46.2147 443.792 46.2188V46.2188Z" fill="#33C481"/>
<path d="M301.67 246.5H462.188V346.641H301.67V246.5Z" fill="#107C41"/>
<defs>
<linearGradient id="paint0_linear_9_27" x1="69.2357" y1="121.925" x2="213.099" y2="371.075" gradientUnits="userSpaceOnUse">
<stop stop-color="#18884F"/>
<stop offset="0.5" stop-color="#117E43"/>
<stop offset="1" stop-color="#0B6631"/>
</linearGradient>
</defs>
</svg>
